<svg xmlns="http://www.w3.org/2000/svg" xmlns:xlink="http://www.w3.org/1999/xlink" width="500" zoomAndPan="magnify" viewBox="0 0 375 187.499995" height="250" preserveAspectRatio="xMidYMid meet" version="1.0"><path fill="#1a191b" d="M 324.640625 28.21875 C 324.96875 28.382812 325.289062 28.5625 325.605469 28.746094 L 325.605469 29.238281 L 326.148438 29.425781 C 327.589844 30.066406 328.539062 31.164062 329.492188 32.386719 C 331.132812 34.742188 332.589844 37.367188 333.507812 40.089844 L 334.246094 39.84375 C 334.570312 39.332031 334.570312 39.332031 334.863281 38.6875 C 336.4375 35.699219 338.746094 32.828125 341.617188 31.011719 C 343.5625 29.917969 345.164062 29.394531 347.390625 29.410156 L 348.019531 29.410156 C 349.527344 29.433594 350.871094 29.625 352.265625 30.226562 L 352.265625 30.71875 L 352.929688 30.90625 C 353.824219 31.242188 354.296875 31.535156 354.980469 32.199219 C 355.960938 33.453125 356.605469 34.578125 356.957031 36.144531 C 357.292969 39.511719 356.925781 42.660156 355.542969 45.761719 C 354.03125 48.980469 352.09375 51.933594 349.796875 54.644531 L 349.457031 55.046875 C 347.140625 57.816406 344.746094 60.292969 341.898438 62.535156 L 341.515625 62.839844 C 339.273438 64.636719 336.949219 66.164062 334.433594 67.558594 L 333.753906 67.960938 L 333.507812 68.453125 L 333.964844 68.472656 C 334.566406 68.515625 335.136719 68.574219 335.726562 68.699219 C 336.238281 69.132812 336.238281 69.132812 336.46875 69.6875 C 336.589844 70.320312 336.589844 70.320312 336.46875 70.921875 C 335.78125 71.449219 335.292969 71.652344 334.429688 71.773438 L 333.527344 71.804688 L 332.527344 71.851562 C 332.007812 71.871094 331.488281 71.890625 330.96875 71.910156 C 328.875 71.984375 326.992188 72.125 325.113281 73.140625 C 324.410156 73.585938 323.777344 74.082031 323.140625 74.621094 L 322.773438 74.929688 C 321.890625 75.675781 321.011719 76.429688 320.140625 77.183594 C 319.414062 77.8125 318.683594 78.4375 317.953125 79.058594 C 317.082031 79.804688 316.207031 80.554688 315.335938 81.304688 C 313.167969 83.167969 310.972656 84.992188 308.730469 86.765625 C 307.878906 87.441406 307.113281 88.148438 306.355469 88.925781 C 305.476562 89.71875 304.585938 90.488281 303.652344 91.222656 C 303.121094 91.597656 303.121094 91.597656 302.898438 92.128906 C 302.488281 92.378906 302.078125 92.625 301.664062 92.871094 C 301.195312 93.234375 300.730469 93.601562 300.273438 93.980469 L 299.570312 94.558594 C 298.964844 95.058594 298.964844 95.058594 298.527344 95.527344 L 298.207031 95.828125 L 297.714844 95.828125 L 297.46875 96.570312 C 297.089844 96.921875 297.089844 96.921875 296.605469 97.28125 L 296.078125 97.675781 L 295.523438 98.082031 L 294.976562 98.492188 C 293.621094 99.496094 293.621094 99.496094 292.777344 99.777344 C 293.132812 101.132812 293.792969 102.074219 294.613281 103.183594 C 296.136719 105.289062 297.554688 107.449219 298.949219 109.640625 L 299.316406 110.21875 C 300.066406 111.402344 300.816406 112.589844 301.566406 113.777344 C 301.875 114.269531 302.1875 114.761719 302.5 115.25 C 303.894531 117.445312 305.222656 119.683594 306.539062 121.925781 L 306.8125 122.390625 C 307.699219 123.902344 308.582031 125.421875 309.441406 126.953125 L 309.804688 127.59375 C 310.054688 128.136719 310.054688 128.136719 310.054688 128.878906 L 310.550781 128.878906 C 310.882812 129.449219 311.210938 130.027344 311.539062 130.605469 L 311.824219 131.089844 C 312.304688 131.953125 312.589844 132.652344 312.613281 133.652344 L 312.523438 134.550781 C 312.0625 135.121094 312.0625 135.121094 311.289062 135.535156 C 309.679688 136.121094 308.105469 136.417969 306.402344 136.554688 L 305.722656 136.617188 C 305.003906 136.683594 304.28125 136.742188 303.5625 136.800781 L 302.066406 136.929688 C 298.421875 137.238281 294.78125 137.429688 291.121094 137.476562 C 290.515625 137.488281 290.515625 137.488281 289.816406 137.757812 L 289.800781 138.203125 C 289.683594 141.527344 289.460938 144.8125 289.074219 148.113281 L 289.925781 148.148438 C 290.964844 148.191406 292.003906 148.238281 293.042969 148.285156 C 293.492188 148.304688 293.941406 148.324219 294.390625 148.34375 C 295.039062 148.367188 295.683594 148.398438 296.332031 148.429688 L 296.941406 148.449219 C 297.449219 148.476562 297.953125 148.539062 298.453125 148.609375 C 298.878906 148.957031 298.878906 148.957031 299.195312 149.347656 C 299.324219 150.039062 299.25 150.609375 299.195312 151.320312 C 298.703125 151.816406 298.703125 151.816406 298.242188 151.96875 C 297.710938 152.0625 297.238281 152.085938 296.699219 152.078125 L 296.105469 152.070312 L 295.464844 152.058594 L 294.800781 152.046875 C 294.335938 152.035156 293.875 152.027344 293.410156 152.015625 C 292.707031 152 292 151.988281 291.292969 151.980469 L 289.941406 151.949219 L 289.308594 151.941406 C 287.984375 151.90625 287.042969 151.691406 285.867188 151.074219 L 285.371094 150.582031 C 285.101562 147.796875 285.515625 144.882812 285.742188 142.105469 L 285.847656 140.761719 C 285.933594 139.675781 286.023438 138.59375 286.113281 137.511719 L 280.1875 137.757812 L 280.230469 140.589844 C 280.242188 141.492188 280.25 142.398438 280.257812 143.300781 C 280.261719 143.929688 280.269531 144.558594 280.28125 145.1875 C 280.296875 146.089844 280.304688 146.992188 280.308594 147.894531 L 280.328125 148.75 L 280.328125 149.542969 L 280.335938 150.242188 L 280.1875 150.828125 C 279.386719 151.425781 278.707031 151.6875 277.71875 151.816406 C 277.144531 151.863281 276.570312 151.902344 275.996094 151.9375 L 275.5 151.96875 C 274.980469 152 274.460938 152.03125 273.941406 152.0625 C 271.011719 152.230469 271.011719 152.230469 268.09375 152.554688 C 267.253906 152.636719 266.457031 152.691406 265.625 152.554688 C 264.976562 151.9375 264.976562 151.9375 264.636719 151.320312 C 264.851562 150.667969 265.046875 150.179688 265.515625 149.671875 C 267.226562 148.75 269.417969 148.6875 271.316406 148.453125 L 272.09375 148.355469 L 272.855469 148.257812 L 273.53125 148.175781 C 274.429688 148.101562 275.335938 148.113281 276.238281 148.113281 L 276.734375 137.757812 L 271.726562 137.453125 L 269.128906 137.296875 C 268.585938 137.265625 268.046875 137.230469 267.507812 137.199219 C 264.402344 137.015625 261.335938 136.703125 258.265625 136.183594 L 257.304688 136.023438 C 256.492188 135.785156 256.492188 135.785156 255.871094 135.386719 L 255.503906 134.796875 C 255.460938 132.992188 256.28125 131.554688 257.078125 129.972656 L 257.894531 128.316406 L 258.3125 127.476562 C 258.683594 126.714844 259.050781 125.953125 259.410156 125.183594 C 261.160156 121.453125 263.097656 117.84375 265.125 114.257812 L 265.476562 113.640625 C 265.691406 113.253906 265.910156 112.871094 266.132812 112.488281 C 266.707031 111.496094 266.707031 111.496094 266.859375 110.382812 L 266.511719 110.789062 C 265.117188 112.390625 263.613281 113.835938 262.046875 115.269531 L 261.546875 115.726562 L 261.097656 116.132812 C 260.652344 116.582031 260.285156 117 259.949219 117.53125 C 259.816406 118.105469 259.816406 118.105469 259.792969 118.71875 L 259.742188 119.402344 L 259.699219 120.105469 C 259.558594 122.492188 259.558594 122.492188 259.097656 123.476562 C 258.714844 123.945312 258.714844 123.945312 258.25 124.207031 L 257.726562 124.191406 C 257.074219 123.75 256.601562 123.421875 256.246094 122.710938 C 256.1875 122.085938 256.140625 121.460938 256.105469 120.832031 L 256.074219 120.304688 C 256.046875 119.875 256.023438 119.441406 255.996094 119.011719 C 254.832031 119.121094 253.773438 119.316406 252.648438 119.644531 C 251.589844 119.941406 250.6875 120.152344 249.582031 120 C 248.855469 119.507812 248.855469 119.507812 248.347656 119.011719 C 248.390625 118.335938 248.390625 118.335938 248.59375 117.53125 C 249.148438 116.917969 249.683594 116.597656 250.46875 116.328125 C 251.253906 116.105469 252.042969 115.894531 252.835938 115.699219 C 255.480469 115.03125 257.855469 114.324219 259.855469 112.382812 L 260.613281 111.660156 L 261.015625 111.273438 C 261.441406 110.863281 261.871094 110.464844 262.304688 110.066406 C 264.324219 108.207031 266.289062 106.292969 268.230469 104.355469 L 268.925781 103.664062 C 270.179688 102.40625 271.386719 101.128906 272.535156 99.777344 L 273.285156 98.914062 C 274.535156 97.464844 275.773438 96.011719 276.957031 94.511719 C 277.363281 93.996094 277.773438 93.480469 278.1875 92.972656 L 278.9375 92.039062 L 279.300781 91.59375 C 279.875 90.875 280.253906 90.316406 280.433594 89.417969 L 279.660156 89.453125 C 271.332031 89.695312 262.960938 88.097656 255.257812 84.976562 L 255.257812 84.484375 L 253.777344 84.238281 L 253.777344 83.746094 L 253.066406 83.515625 C 252.296875 83.25 252.296875 83.25 251.800781 83.003906 L 251.800781 82.511719 L 251.0625 82.511719 C 249.925781 81.535156 248.90625 80.320312 248.097656 79.058594 C 247.90625 78.414062 247.90625 78.414062 247.851562 77.824219 C 248.160156 77.148438 248.160156 77.148438 248.59375 76.59375 C 249.332031 76.347656 249.332031 76.347656 249.800781 76.410156 L 250.324219 76.539062 L 250.90625 76.675781 L 251.507812 76.824219 C 253.632812 77.382812 253.632812 77.382812 255.789062 77.1875 C 256.679688 76.765625 257.332031 76.34375 257.894531 75.527344 C 259.230469 73.027344 259.871094 70.128906 260.511719 67.386719 C 262.242188 60.050781 264.582031 52.640625 269.820312 46.996094 C 272.203125 44.71875 274.988281 42.875 278.214844 42.066406 L 278.796875 41.914062 C 281.8125 41.246094 285.351562 41.265625 288.335938 42.066406 C 289.101562 42.347656 289.824219 42.6875 290.554688 43.050781 C 290.890625 43.199219 291.222656 43.339844 291.558594 43.484375 L 292.285156 43.789062 L 292.285156 44.285156 L 293.519531 44.53125 L 293.765625 45.269531 L 294.242188 45.378906 L 294.753906 45.515625 C 294.921875 45.84375 295.085938 46.171875 295.246094 46.503906 C 295.390625 46.566406 295.535156 46.632812 295.683594 46.699219 C 296.441406 47.109375 296.863281 47.667969 297.40625 48.339844 L 298.003906 49.0625 L 298.453125 49.710938 L 298.453125 50.449219 L 298.949219 50.449219 C 302.683594 56.539062 304.742188 63.492188 306.027344 70.488281 C 306.71875 74.199219 307.871094 77.542969 309.808594 80.785156 C 310.644531 80.488281 311.242188 80.183594 311.890625 79.582031 C 312.804688 78.757812 313.730469 77.945312 314.667969 77.148438 L 315.117188 76.765625 C 316.632812 75.46875 318.15625 74.179688 319.683594 72.894531 L 320.085938 72.542969 C 320.4375 72.238281 320.800781 71.949219 321.164062 71.660156 L 321.65625 71.660156 C 321.289062 70.792969 320.914062 69.929688 320.519531 69.070312 L 320.128906 68.207031 L 319.734375 67.34375 C 319.414062 66.417969 319.359375 65.726562 319.4375 64.753906 L 319.730469 64.261719 L 320.175781 64.015625 C 320.777344 64.0625 320.777344 64.0625 321.410156 64.261719 C 321.804688 64.683594 321.804688 64.683594 322.136719 65.234375 L 322.507812 65.832031 L 322.890625 66.480469 L 323.316406 67.175781 C 323.671875 67.765625 324.023438 68.355469 324.371094 68.945312 C 325.234375 68.671875 326.046875 68.390625 326.839844 67.960938 L 326.839844 67.222656 L 325.855469 66.726562 L 325.855469 66.234375 L 325.40625 66.035156 C 324.871094 65.742188 324.554688 65.429688 324.125 65 L 323.386719 64.753906 C 322.984375 64.328125 322.636719 63.878906 322.273438 63.421875 C 321.902344 62.960938 321.902344 62.960938 321.164062 62.78125 C 320.757812 62.367188 320.757812 62.367188 320.332031 61.855469 C 319.847656 61.285156 319.371094 60.746094 318.835938 60.222656 C 314.726562 56.019531 311.109375 50.132812 309.597656 44.414062 C 308.792969 41.175781 308.300781 37.703125 309.207031 34.433594 C 309.894531 32.5 310.980469 30.945312 312.460938 29.53125 C 313.765625 28.464844 315.300781 27.710938 316.949219 27.359375 C 319.585938 27.035156 322.167969 27.191406 324.640625 28.21875 M 282.164062 47.242188 L 281.808594 47.957031 C 280.738281 50.070312 279.574219 51.898438 277.96875 53.65625 L 277.453125 54.230469 C 275.367188 56.441406 273.058594 58.160156 270.160156 59.113281 C 268.929688 59.511719 268.929688 59.511719 267.890625 60.253906 C 267.609375 60.769531 267.472656 61.21875 267.351562 61.792969 L 267.191406 62.332031 C 266.453125 65.328125 266.5 69.003906 267.230469 72 C 268.140625 75.140625 269.660156 78.207031 272.023438 80.507812 C 272.429688 80.871094 272.824219 81.21875 273.277344 81.523438 L 273.769531 81.523438 L 273.769531 82.019531 C 276.917969 83.742188 279.566406 84.351562 283.128906 84.324219 C 285.59375 84.265625 287.769531 83.824219 289.953125 82.652344 C 292.320312 81.132812 294.328125 78.90625 295.664062 76.4375 C 296.167969 75.359375 296.546875 74.242188 296.910156 73.109375 L 297.070312 72.617188 C 297.6875 70.585938 297.757812 68.589844 297.761719 66.480469 L 297.769531 65.773438 C 297.773438 64.207031 297.6875 62.730469 296.972656 61.300781 L 296.234375 61.300781 L 296.234375 60.808594 L 294.257812 60.316406 L 294.257812 59.820312 L 293.269531 59.820312 L 293.269531 59.328125 L 292.035156 59.082031 L 292.035156 58.589844 C 291.332031 58.050781 291.332031 58.050781 290.554688 57.601562 L 290.0625 57.601562 L 289.90625 57.199219 C 289.53125 56.546875 289.058594 56.097656 288.507812 55.589844 C 286.550781 53.769531 285.199219 51.777344 283.890625 49.464844 L 283.464844 48.71875 C 283.191406 48.230469 282.921875 47.738281 282.65625 47.242188 Z M 299.867188 88.152344 C 297.625 88.460938 295.375 88.71875 293.121094 88.929688 L 292.429688 88.992188 C 291.269531 89.101562 290.109375 89.207031 288.953125 89.308594 L 287.65625 89.425781 L 287.046875 89.476562 C 286.566406 89.523438 286.09375 89.589844 285.617188 89.664062 L 285.371094 90.15625 L 285.824219 90.792969 L 286.125 91.210938 C 286.34375 91.519531 286.566406 91.824219 286.785156 92.132812 C 287.371094 92.949219 287.953125 93.769531 288.527344 94.589844 L 288.859375 95.0625 C 289.070312 95.363281 289.28125 95.664062 289.492188 95.964844 C 289.976562 96.652344 290.339844 97.085938 291.050781 97.554688 L 291.492188 97.148438 C 292.804688 95.957031 294.148438 94.804688 295.527344 93.691406 C 296.269531 93.082031 297.011719 92.472656 297.746094 91.851562 C 301.019531 89.125 301.019531 89.125 301.910156 88.675781 L 301.910156 87.9375 C 301.21875 87.9375 300.550781 88.054688 299.867188 88.152344 " fill-opacity="1" fill-rule="nonzero"/><path fill="#1fbfb9" d="M 64.695312 58.835938 L 64.695312 59.328125 L 65.09375 59.4375 C 66.652344 59.90625 68.078125 60.570312 69.386719 61.546875 L 69.386719 62.042969 L 69.816406 62.222656 C 70.484375 62.597656 70.886719 63.039062 71.390625 63.613281 L 71.902344 64.191406 C 72.300781 64.695312 72.582031 65.15625 72.84375 65.742188 C 73.316406 65.671875 73.316406 65.671875 73.828125 65.496094 C 74.179688 65.164062 74.179688 65.164062 74.476562 64.738281 C 76.253906 62.578125 78.710938 60.996094 81.234375 59.820312 C 84.902344 58.445312 88.878906 58.109375 92.757812 58.75 C 95.25 59.265625 97.800781 60.371094 99.746094 62.042969 L 99.746094 62.535156 L 100.179688 62.707031 C 101.339844 63.378906 102.011719 64.628906 102.710938 65.742188 C 104.390625 69.015625 104.957031 72.480469 104.980469 76.121094 L 104.988281 76.761719 C 104.996094 77.460938 105.003906 78.15625 105.007812 78.855469 L 105.023438 80.332031 C 105.035156 81.371094 105.046875 82.40625 105.054688 83.441406 C 105.066406 84.746094 105.082031 86.046875 105.09375 87.351562 C 105.128906 90.507812 105.15625 93.660156 105.179688 96.816406 L 105.183594 97.445312 C 105.191406 98.707031 105.195312 99.972656 105.199219 101.238281 L 105.207031 102.164062 L 105.207031 103.695312 L 105.179688 104.214844 L 104.929688 104.460938 C 104.203125 104.488281 103.484375 104.496094 102.757812 104.496094 L 102.09375 104.496094 C 101.632812 104.496094 101.171875 104.496094 100.707031 104.492188 C 99.996094 104.492188 99.289062 104.492188 98.578125 104.496094 C 98.128906 104.496094 97.679688 104.496094 97.234375 104.496094 L 96.585938 104.496094 C 96.074219 104.492188 95.566406 104.480469 95.058594 104.460938 L 94.8125 104.214844 C 94.789062 103.863281 94.773438 103.511719 94.773438 103.160156 L 94.769531 102.46875 L 94.769531 101.703125 L 94.761719 100.902344 C 94.757812 100.324219 94.757812 99.75 94.753906 99.171875 C 94.75 98.257812 94.746094 97.34375 94.738281 96.425781 C 94.722656 93.824219 94.707031 91.222656 94.691406 88.621094 C 94.683594 87.03125 94.675781 85.441406 94.664062 83.851562 C 94.660156 83.25 94.65625 82.644531 94.65625 82.039062 C 94.757812 76.367188 94.757812 76.367188 93.007812 71.066406 C 92.40625 70.148438 91.808594 69.507812 90.863281 68.945312 C 88.378906 67.726562 85.941406 67.558594 83.210938 67.714844 C 81.066406 68.070312 78.914062 69.105469 77.167969 70.378906 C 76.34375 71.074219 75.730469 71.640625 75.3125 72.648438 C 75.238281 73.234375 75.238281 73.234375 75.253906 73.875 L 75.25 74.625 L 75.257812 75.445312 L 75.257812 76.308594 C 75.261719 77.253906 75.265625 78.203125 75.269531 79.148438 C 75.273438 79.804688 75.273438 80.460938 75.273438 81.121094 C 75.277344 82.675781 75.28125 84.230469 75.289062 85.789062 C 75.300781 88.570312 75.308594 91.351562 75.3125 94.132812 C 75.316406 95.265625 75.320312 96.398438 75.324219 97.53125 L 75.332031 99.316406 L 75.335938 100.128906 C 75.339844 101.515625 75.273438 102.84375 75.0625 104.214844 C 73.894531 104.445312 72.761719 104.5 71.574219 104.503906 L 71.003906 104.503906 C 70.609375 104.507812 70.214844 104.507812 69.820312 104.507812 C 69.214844 104.507812 68.613281 104.511719 68.007812 104.515625 C 67.621094 104.519531 67.238281 104.519531 66.851562 104.519531 L 66.304688 104.523438 C 65.851562 104.523438 65.398438 104.492188 64.941406 104.460938 L 64.203125 103.96875 C 64.109375 103.46875 64.109375 103.46875 64.109375 102.84375 L 64.101562 102.128906 L 64.109375 101.335938 L 64.105469 100.507812 C 64.101562 99.910156 64.101562 99.3125 64.101562 98.714844 C 64.101562 97.769531 64.097656 96.824219 64.09375 95.875 C 64.085938 93.863281 64.082031 91.847656 64.078125 89.832031 C 64.078125 87.507812 64.070312 85.183594 64.058594 82.859375 C 64.054688 81.929688 64.058594 81 64.058594 80.070312 C 64.125 75.335938 64.125 75.335938 62.566406 70.9375 C 61.601562 69.636719 60.414062 68.863281 58.953125 68.199219 C 56.945312 67.480469 54.746094 67.492188 52.660156 67.820312 C 50.929688 68.269531 49.386719 69.191406 47.910156 70.179688 C 47.664062 70.425781 47.417969 70.671875 47.171875 70.921875 L 46.675781 70.921875 L 46.675781 71.414062 L 46.183594 71.414062 L 45.96875 71.96875 C 45.691406 72.648438 45.691406 72.648438 45.429688 73.105469 C 45.15625 73.726562 45.136719 74.160156 45.136719 74.835938 L 45.136719 75.566406 L 45.144531 76.367188 L 45.144531 77.210938 C 45.144531 78.132812 45.152344 79.058594 45.15625 79.980469 L 45.160156 81.90625 C 45.164062 83.421875 45.167969 84.941406 45.175781 86.457031 C 45.1875 89.335938 45.195312 92.210938 45.199219 95.085938 C 45.203125 96.03125 45.207031 96.976562 45.210938 97.917969 L 45.214844 99.660156 L 45.222656 100.453125 C 45.222656 101.734375 45.195312 102.957031 44.949219 104.214844 L 44.703125 104.460938 C 44.023438 104.488281 43.339844 104.503906 42.660156 104.503906 L 42.039062 104.503906 C 41.601562 104.507812 41.167969 104.507812 40.730469 104.507812 C 40.0625 104.507812 39.398438 104.511719 38.730469 104.515625 C 38.308594 104.519531 37.886719 104.519531 37.460938 104.519531 L 36.859375 104.523438 C 35.871094 104.519531 35.191406 104.449219 34.335938 103.96875 C 34.304688 98.257812 34.285156 92.546875 34.269531 86.835938 C 34.265625 84.183594 34.253906 81.53125 34.242188 78.878906 C 34.230469 76.570312 34.222656 74.257812 34.21875 71.949219 C 34.21875 70.722656 34.214844 69.5 34.203125 68.277344 C 34.195312 67.125 34.191406 65.972656 34.195312 64.824219 C 34.195312 64.398438 34.191406 63.976562 34.1875 63.554688 C 34.183594 62.976562 34.183594 62.402344 34.1875 61.824219 L 34.183594 60.84375 L 34.335938 60.070312 C 34.90625 59.59375 34.90625 59.59375 35.570312 59.328125 C 36.21875 59.25 36.871094 59.207031 37.527344 59.203125 L 38.085938 59.1875 C 38.671875 59.175781 39.257812 59.167969 39.84375 59.160156 C 40.242188 59.152344 40.640625 59.140625 41.039062 59.132812 C 42.011719 59.113281 42.988281 59.097656 43.960938 59.082031 C 44.277344 59.710938 44.238281 60.160156 44.234375 60.863281 L 44.230469 61.636719 L 44.222656 62.441406 L 44.222656 63.253906 C 44.21875 63.917969 44.214844 64.582031 44.207031 65.246094 L 44.949219 65.246094 C 45.328125 64.886719 45.328125 64.886719 45.691406 64.398438 C 47.519531 62.234375 49.714844 60.617188 52.355469 59.574219 C 56.574219 58.203125 60.324219 58.351562 64.695312 58.835938 M 147.316406 60.167969 C 148.820312 60.894531 150.253906 61.769531 151.585938 62.78125 L 151.585938 63.273438 L 152.011719 63.457031 C 153.660156 64.367188 154.960938 66.050781 155.945312 67.625 C 156.550781 68.695312 157.050781 69.78125 157.507812 70.921875 L 157.832031 71.726562 C 159.324219 75.761719 159.75 80.203125 159.484375 84.484375 L 159.238281 84.730469 C 158.804688 84.757812 158.375 84.769531 157.941406 84.769531 L 157.089844 84.777344 L 156.148438 84.78125 L 155.164062 84.789062 C 154.269531 84.796875 153.375 84.800781 152.480469 84.804688 C 151.550781 84.8125 150.617188 84.816406 149.683594 84.824219 C 147.914062 84.835938 146.144531 84.847656 144.375 84.859375 C 142.363281 84.871094 140.351562 84.882812 138.339844 84.898438 C 134.195312 84.925781 130.054688 84.953125 125.914062 84.976562 C 125.945312 85.367188 125.976562 85.757812 126.011719 86.148438 L 126.066406 86.804688 C 126.210938 87.789062 126.601562 88.582031 127.070312 89.449219 L 127.335938 89.960938 C 127.980469 91.171875 128.664062 92.367188 129.617188 93.363281 L 130.109375 93.609375 L 130.109375 94.101562 L 130.535156 94.3125 C 130.902344 94.5 131.265625 94.691406 131.628906 94.886719 C 134.164062 96.242188 136.675781 96.707031 139.535156 96.675781 L 140.347656 96.671875 C 143.960938 96.59375 146.84375 95.769531 150.007812 94.054688 C 151.339844 93.347656 151.339844 93.347656 152.078125 93.117188 L 152.820312 93.363281 C 153.246094 93.929688 153.652344 94.511719 154.039062 95.105469 L 154.359375 95.585938 C 154.675781 96.074219 154.988281 96.566406 155.285156 97.0625 L 155.601562 97.582031 C 155.871094 98.0625 156.101562 98.511719 156.273438 99.035156 C 156.179688 99.714844 156.179688 99.714844 155.78125 100.269531 C 155.132812 100.769531 155.132812 100.769531 154.332031 101.242188 L 153.902344 101.492188 C 151.085938 103.128906 151.085938 103.128906 149.609375 103.722656 L 148.621094 103.722656 L 148.621094 104.214844 C 145.246094 105.074219 141.953125 105.574219 138.472656 105.570312 L 137.53125 105.574219 C 133.277344 105.519531 129.160156 104.480469 125.464844 102.332031 C 122.09375 100.265625 119.429688 97.46875 117.476562 94.027344 C 116.847656 92.847656 116.375 91.636719 115.945312 90.375 L 115.769531 89.847656 C 114.945312 87.253906 114.714844 84.664062 114.726562 81.957031 L 114.730469 81.070312 C 114.792969 76.808594 115.761719 73.152344 117.8125 69.410156 C 119.949219 65.921875 122.796875 63.203125 126.378906 61.222656 C 132.683594 57.84375 140.6875 57.476562 147.316406 60.167969 M 130.851562 68.453125 C 130.515625 68.695312 130.1875 68.941406 129.863281 69.195312 L 129.238281 69.65625 C 127.785156 70.90625 126.925781 72.667969 126.296875 74.449219 C 125.949219 75.523438 125.914062 76.144531 125.914062 77.332031 L 149.117188 77.332031 C 149.117188 75.324219 148.746094 73.757812 147.769531 71.996094 C 147.160156 71.0625 146.527344 70.152344 145.660156 69.441406 L 145.167969 69.441406 L 145.167969 68.945312 C 144.675781 68.667969 144.179688 68.390625 143.683594 68.113281 L 142.851562 67.648438 C 140.652344 66.527344 138.277344 66.566406 135.863281 66.679688 C 134.015625 66.835938 132.398438 67.453125 130.851562 68.453125 M 282.410156 92.871094 C 282.875 92.921875 282.875 92.921875 283.398438 93.117188 C 283.761719 93.515625 283.761719 93.515625 284.101562 94.035156 L 284.492188 94.625 L 284.894531 95.242188 C 285.859375 96.710938 286.851562 98.144531 287.898438 99.554688 C 289.367188 101.539062 290.738281 103.585938 292.097656 105.648438 C 292.5625 106.347656 293.027344 107.050781 293.492188 107.75 L 293.824219 108.253906 C 294.574219 109.375 295.335938 110.488281 296.113281 111.585938 C 299.746094 116.753906 302.929688 122.304688 306.023438 127.804688 C 306.359375 128.390625 306.695312 128.972656 307.039062 129.554688 L 307.359375 130.109375 C 307.558594 130.449219 307.757812 130.789062 307.957031 131.125 C 308.183594 131.519531 308.382812 131.921875 308.574219 132.332031 L 308.328125 133.070312 C 305.015625 133.589844 301.742188 133.96875 298.394531 134.105469 L 297.707031 134.132812 C 292.5625 134.34375 287.414062 134.355469 282.265625 134.363281 C 281.617188 134.367188 280.972656 134.367188 280.328125 134.371094 C 275.949219 134.382812 271.585938 134.339844 267.21875 134.085938 L 266.707031 134.054688 C 264.351562 133.917969 262.035156 133.65625 259.699219 133.316406 C 259.828125 132.414062 259.980469 131.652344 260.390625 130.839844 L 260.664062 130.285156 L 260.964844 129.699219 L 261.277344 129.078125 C 261.609375 128.417969 261.941406 127.761719 262.277344 127.105469 L 262.925781 125.820312 C 264.367188 122.957031 265.847656 120.117188 267.351562 117.285156 L 267.761719 116.519531 C 278.046875 97.230469 278.046875 97.230469 282.410156 92.871094 " fill-opacity="1" fill-rule="nonzero"/><path fill="#df0124" d="M 322.644531 31.707031 C 324.449219 32.59375 326.023438 33.710938 327.167969 35.386719 C 327.40625 35.792969 327.621094 36.214844 327.828125 36.640625 L 327.828125 37.132812 L 328.324219 37.132812 C 329.601562 39.472656 330.628906 41.851562 331.53125 44.363281 L 331.828125 45.1875 C 332.519531 47.144531 332.519531 47.144531 332.519531 47.984375 C 333.238281 47.890625 333.238281 47.890625 334 47.492188 C 334.449219 46.839844 334.722656 46.125 335.019531 45.394531 C 336.136719 42.847656 337.546875 40.609375 339.183594 38.363281 L 339.511719 37.914062 C 340.875 36.074219 342.300781 34.691406 344.367188 33.679688 C 345.761719 33.089844 347.160156 32.789062 348.679688 32.835938 C 349.8125 33.023438 350.839844 33.503906 351.773438 34.171875 L 352.019531 34.914062 L 352.757812 35.160156 C 353.253906 35.941406 353.488281 36.550781 353.605469 37.472656 C 353.609375 40.992188 352.589844 43.871094 351.03125 46.996094 L 350.539062 46.996094 L 350.292969 48.230469 L 349.796875 48.230469 L 349.734375 48.648438 C 349.492188 49.394531 349.058594 49.839844 348.5625 50.449219 L 348.117188 51.265625 C 347.519531 52.34375 346.742188 53.300781 345.847656 54.148438 L 345.355469 54.148438 L 345.292969 54.582031 C 345.109375 55.136719 345.109375 55.136719 344.628906 55.691406 L 344.121094 56.121094 L 343.625 56.121094 L 343.625 56.617188 C 342.867188 57.4375 342.0625 58.175781 341.15625 58.835938 L 340.664062 58.835938 L 340.464844 59.285156 C 340.164062 59.835938 339.902344 60.109375 339.417969 60.496094 L 338.960938 60.859375 L 338.472656 61.238281 L 337.972656 61.632812 C 336.535156 62.757812 335.042969 63.769531 333.507812 64.753906 L 332.730469 65.289062 C 332.023438 65.742188 332.023438 65.742188 331.238281 65.925781 C 329.589844 65.601562 328.453125 64.519531 327.207031 63.445312 C 326.234375 62.589844 325.300781 61.703125 324.371094 60.808594 L 323.910156 60.367188 C 319.707031 56.335938 315.78125 51.464844 313.820312 45.902344 C 313.714844 45.527344 313.609375 45.152344 313.511719 44.777344 L 313.25 43.90625 C 312.457031 41.148438 312.097656 38.382812 312.769531 35.542969 C 313.265625 34.171875 314.152344 33.148438 315.238281 32.199219 C 317.589844 30.636719 320.074219 30.6875 322.644531 31.707031 " fill-opacity="1" fill-rule="nonzero"/><path fill="#1fbfb9" d="M 207.265625 43.480469 C 207.632812 43.476562 208 43.476562 208.363281 43.480469 L 208.953125 43.476562 C 209.363281 43.476562 209.769531 43.476562 210.179688 43.480469 C 210.808594 43.484375 211.433594 43.480469 212.058594 43.476562 L 213.253906 43.480469 L 213.820312 43.476562 C 214.527344 43.480469 215.1875 43.523438 215.875 43.6875 L 216.257812 44.039062 C 216.492188 45.269531 216.539062 46.476562 216.53125 47.726562 L 216.53125 48.304688 C 216.527344 48.9375 216.527344 49.570312 216.523438 50.203125 L 216.519531 51.570312 C 216.519531 52.550781 216.515625 53.53125 216.515625 54.511719 C 216.511719 56.0625 216.507812 57.613281 216.503906 59.164062 C 216.5 63.570312 216.492188 67.980469 216.480469 72.390625 C 216.472656 74.824219 216.46875 77.261719 216.46875 79.699219 C 216.464844 81.238281 216.460938 82.777344 216.457031 84.320312 C 216.453125 85.277344 216.453125 86.234375 216.453125 87.199219 C 216.453125 87.640625 216.449219 88.085938 216.449219 88.527344 C 216.386719 91.894531 216.386719 91.894531 217.214844 95.128906 L 217.492188 95.582031 C 218.738281 96.085938 219.96875 96.164062 221.304688 96.238281 C 221.964844 96.328125 222.375 96.433594 222.921875 96.816406 C 223.339844 98.035156 223.214844 99.367188 223.214844 100.640625 L 223.222656 101.421875 L 223.226562 102.171875 L 223.226562 102.859375 C 223.164062 103.519531 223.046875 103.914062 222.675781 104.460938 C 220.992188 105.113281 219.203125 105.046875 217.417969 105.046875 C 216.90625 105.046875 216.398438 105.054688 215.886719 105.066406 C 213.925781 105.082031 212.332031 104.886719 210.578125 103.96875 L 209.808594 103.566406 C 208.335938 102.351562 207.023438 100.757812 206.335938 98.957031 C 205.421875 95.941406 205.570312 92.65625 205.574219 89.542969 L 205.570312 88.050781 C 205.566406 86.710938 205.566406 85.367188 205.566406 84.027344 C 205.566406 82.90625 205.566406 81.789062 205.566406 80.667969 C 205.5625 78.027344 205.5625 75.382812 205.566406 72.742188 C 205.566406 70.015625 205.5625 67.292969 205.558594 64.566406 C 205.554688 62.222656 205.550781 59.878906 205.554688 57.535156 C 205.554688 56.136719 205.550781 54.738281 205.550781 53.339844 C 205.546875 52.027344 205.546875 50.71875 205.550781 49.40625 C 205.550781 48.921875 205.550781 48.441406 205.546875 47.957031 C 205.546875 47.300781 205.546875 46.648438 205.550781 45.992188 L 205.542969 45.40625 C 205.550781 44.878906 205.550781 44.878906 205.640625 44.039062 C 206.382812 43.542969 206.382812 43.542969 207.265625 43.480469 M 196.261719 58.835938 L 196.507812 59.082031 C 196.613281 60.164062 196.636719 61.25 196.679688 62.335938 L 196.722656 63.257812 L 196.757812 64.148438 L 196.792969 64.964844 C 196.753906 65.796875 196.5625 66.445312 196.261719 67.222656 C 195.898438 67.242188 195.898438 67.242188 195.53125 67.265625 C 192.140625 67.425781 192.140625 67.425781 188.855469 68.207031 C 188.527344 68.265625 188.199219 68.320312 187.871094 68.375 C 185.597656 68.875 183.519531 70.039062 181.792969 71.566406 C 180.449219 72.789062 180.449219 72.789062 179.574219 74.335938 C 179.464844 74.929688 179.445312 75.480469 179.441406 76.085938 L 179.4375 76.832031 L 179.433594 77.640625 L 179.429688 78.5 C 179.425781 79.113281 179.421875 79.730469 179.421875 80.34375 C 179.417969 81.316406 179.410156 82.289062 179.40625 83.261719 C 179.386719 86.023438 179.371094 88.789062 179.359375 91.550781 C 179.351562 93.242188 179.34375 94.929688 179.328125 96.621094 C 179.324219 97.265625 179.324219 97.910156 179.320312 98.558594 C 179.316406 99.457031 179.3125 100.355469 179.304688 101.257812 L 179.304688 102.070312 L 179.296875 102.8125 L 179.292969 103.457031 L 179.230469 103.96875 L 178.738281 104.460938 C 178.039062 104.511719 177.367188 104.53125 176.671875 104.527344 L 176.050781 104.527344 C 175.617188 104.527344 175.179688 104.527344 174.746094 104.527344 C 174.082031 104.523438 173.417969 104.527344 172.753906 104.527344 C 172.332031 104.527344 171.910156 104.527344 171.488281 104.527344 L 170.886719 104.53125 C 169.902344 104.523438 169.226562 104.449219 168.371094 103.96875 C 168.359375 98.222656 168.347656 92.472656 168.34375 86.726562 C 168.339844 84.058594 168.335938 81.390625 168.332031 78.71875 C 168.328125 76.394531 168.324219 74.070312 168.324219 71.746094 C 168.324219 70.511719 168.320312 69.28125 168.316406 68.050781 C 168.3125 66.890625 168.3125 65.734375 168.3125 64.574219 C 168.3125 64.148438 168.3125 63.722656 168.3125 63.296875 C 168.308594 62.71875 168.308594 62.136719 168.308594 61.558594 L 168.308594 60.570312 L 168.371094 59.820312 L 168.863281 59.328125 C 169.5 59.285156 170.136719 59.265625 170.773438 59.273438 L 171.347656 59.273438 C 171.75 59.273438 172.148438 59.273438 172.550781 59.277344 C 173.164062 59.28125 173.777344 59.28125 174.390625 59.28125 L 175.558594 59.289062 L 176.113281 59.289062 C 176.890625 59.296875 177.503906 59.328125 178.242188 59.574219 C 178.570312 60.230469 178.519531 60.730469 178.515625 61.464844 L 178.511719 62.304688 L 178.503906 63.183594 L 178.503906 64.066406 C 178.5 64.789062 178.496094 65.511719 178.488281 66.234375 C 179.507812 65.351562 180.511719 64.464844 181.484375 63.535156 C 184.304688 61.050781 187.632812 59.820312 191.269531 59.082031 C 191.664062 59.007812 192.058594 58.9375 192.453125 58.867188 L 193.003906 58.765625 C 194.144531 58.585938 195.117188 58.597656 196.261719 58.835938 " fill-opacity="1" fill-rule="nonzero"/><path fill="#1a191b" d="M 208.359375 120.984375 C 209.222656 121.421875 210.058594 121.875 210.828125 122.464844 L 210.828125 122.960938 L 212.058594 123.207031 L 212.046875 122.234375 C 212.039062 121.902344 212.042969 121.566406 212.058594 121.234375 L 212.308594 120.984375 C 212.957031 120.960938 213.601562 120.953125 214.25 120.957031 L 214.800781 120.953125 C 215.597656 120.953125 216.238281 120.980469 216.996094 121.234375 C 217.492188 121.972656 217.492188 121.972656 217.554688 122.855469 C 217.558594 123.230469 217.558594 123.605469 217.558594 123.980469 L 217.5625 124.597656 C 217.566406 125.277344 217.566406 125.957031 217.566406 126.632812 L 217.570312 128.054688 C 217.570312 129.046875 217.570312 130.039062 217.570312 131.03125 C 217.566406 132.300781 217.570312 133.566406 217.578125 134.832031 C 217.582031 135.808594 217.582031 136.789062 217.582031 137.765625 C 217.582031 138.234375 217.582031 138.699219 217.585938 139.164062 C 217.597656 142.179688 217.585938 145.171875 216.078125 147.886719 C 215.046875 149.453125 213.976562 150.5625 212.292969 151.429688 C 209.207031 152.828125 206.019531 153.011719 202.679688 152.800781 C 200.578125 152.554688 198.515625 151.988281 196.507812 151.320312 L 196.507812 150.828125 L 195.523438 150.828125 C 194.8125 150.335938 194.8125 150.335938 194.289062 149.59375 C 194.441406 148.039062 195.132812 146.917969 196.015625 145.648438 L 197.003906 145.894531 L 197.003906 146.390625 C 198.027344 146.734375 199.058594 147.066406 200.089844 147.390625 L 200.898438 147.644531 C 202.992188 148.230469 205.203125 148.355469 207.351562 147.992188 C 208.328125 147.730469 209.070312 147.390625 209.929688 146.851562 C 210.773438 145.929688 211.246094 145.132812 211.566406 143.921875 C 211.714844 142.6875 211.78125 141.464844 211.8125 140.222656 L 211.035156 140.636719 C 208.707031 141.855469 206.640625 142.8125 203.949219 142.738281 C 202.390625 142.59375 200.914062 142.320312 199.472656 141.703125 L 199.472656 141.210938 L 198.871094 141.117188 L 198.238281 140.964844 L 197.992188 140.46875 L 197.25 140.222656 C 195.777344 138.730469 194.746094 137.011719 194.039062 135.042969 C 193.539062 133.113281 193.597656 130.945312 193.953125 128.988281 C 194.542969 126.890625 195.5 125.054688 196.972656 123.4375 C 198.375 122.125 200.058594 121.21875 201.894531 120.664062 C 203.941406 120.226562 206.382812 120.242188 208.359375 120.984375 M 202.925781 125.671875 C 201.824219 126.421875 200.96875 127.238281 200.351562 128.429688 C 199.65625 129.957031 199.597656 131.410156 199.71875 133.070312 C 199.945312 134.375 200.429688 135.34375 201.261719 136.371094 C 201.800781 136.992188 202.25 137.296875 202.984375 137.683594 C 203.976562 138.023438 204.839844 138.117188 205.875 138.097656 L 206.398438 138.089844 C 207.726562 138.050781 208.679688 137.898438 209.839844 137.261719 C 210.542969 136.664062 210.542969 136.664062 211.074219 136.03125 L 211.566406 135.535156 C 211.675781 134.5 211.667969 133.460938 211.671875 132.421875 C 211.675781 131.90625 211.6875 131.390625 211.699219 130.875 C 211.75 129.179688 211.75 129.179688 211.300781 127.574219 C 210.957031 127.109375 210.957031 127.109375 210.332031 126.660156 L 209.839844 126.660156 L 209.839844 126.164062 C 209.53125 126.046875 209.222656 125.929688 208.914062 125.8125 L 208.390625 125.609375 C 206.59375 124.976562 204.707031 124.929688 202.925781 125.671875 " fill-opacity="1" fill-rule="nonzero"/><path fill="#1fbfb9" d="M 233.117188 59.277344 L 233.660156 59.273438 C 234.035156 59.273438 234.414062 59.269531 234.789062 59.269531 C 235.367188 59.265625 235.945312 59.257812 236.523438 59.25 C 236.890625 59.25 237.257812 59.25 237.621094 59.246094 L 238.148438 59.238281 C 238.636719 59.242188 238.636719 59.242188 239.460938 59.328125 C 239.875 59.59375 239.875 59.59375 240.199219 60.070312 C 240.292969 60.847656 240.292969 60.847656 240.289062 61.832031 L 240.292969 62.382812 C 240.292969 62.988281 240.289062 63.597656 240.285156 64.203125 L 240.285156 65.511719 C 240.285156 66.691406 240.28125 67.875 240.273438 69.058594 C 240.269531 70.292969 240.269531 71.527344 240.269531 72.765625 C 240.265625 75.105469 240.261719 77.445312 240.253906 79.785156 C 240.246094 82.449219 240.242188 85.109375 240.238281 87.773438 C 240.230469 93.253906 240.214844 98.734375 240.199219 104.214844 C 239.242188 104.480469 238.332031 104.496094 237.34375 104.496094 L 236.800781 104.496094 C 236.425781 104.496094 236.046875 104.496094 235.671875 104.492188 C 235.09375 104.492188 234.515625 104.492188 233.9375 104.496094 C 233.570312 104.496094 233.203125 104.496094 232.839844 104.496094 L 232.3125 104.496094 C 231.898438 104.492188 231.480469 104.480469 231.066406 104.460938 L 230.820312 104.214844 C 230.796875 103.636719 230.789062 103.066406 230.789062 102.492188 L 230.789062 101.9375 C 230.789062 101.320312 230.789062 100.707031 230.792969 100.089844 L 230.792969 98.769531 C 230.792969 97.570312 230.792969 96.375 230.796875 95.175781 C 230.796875 93.925781 230.796875 92.675781 230.796875 91.425781 C 230.796875 89.054688 230.800781 86.683594 230.800781 84.316406 C 230.804688 81.617188 230.808594 78.921875 230.808594 76.222656 C 230.8125 70.675781 230.816406 65.125 230.820312 59.574219 C 231.554688 59.207031 232.3125 59.285156 233.117188 59.277344 " fill-opacity="1" fill-rule="nonzero"/><path fill="#1a191b" d="M 51.042969 121.019531 C 51.75 121.28125 52.4375 121.597656 53.09375 121.972656 L 53.09375 122.464844 L 53.835938 122.464844 L 53.835938 122.960938 L 54.390625 123.128906 C 55.457031 123.636719 55.925781 124.488281 56.585938 125.4375 C 57.753906 127.285156 58.5 129.265625 58.609375 131.460938 C 58.652344 133.859375 58.546875 136.03125 57.539062 138.25 C 57.097656 139.039062 56.605469 139.753906 56.058594 140.46875 L 55.609375 141.132812 C 54.417969 142.390625 53.023438 143.183594 51.398438 143.769531 C 49.039062 144.429688 46.46875 144.445312 44.0625 144.007812 C 43.25 143.792969 42.492188 143.558594 41.742188 143.183594 L 41.742188 142.6875 L 41 142.6875 L 41 142.195312 L 40.011719 142.195312 L 40.015625 143.144531 C 40.019531 144.296875 40.023438 145.453125 40.027344 146.609375 C 40.027344 147.109375 40.027344 147.609375 40.03125 148.109375 C 40.035156 148.828125 40.035156 149.546875 40.035156 150.265625 L 40.039062 150.949219 C 40.039062 151.484375 40.027344 152.019531 40.011719 152.554688 L 39.765625 152.800781 C 39.171875 152.832031 38.585938 152.847656 37.992188 152.847656 L 37.007812 152.859375 C 36.101562 152.804688 35.417969 152.648438 34.582031 152.308594 L 34.335938 152.0625 C 34.3125 151.671875 34.300781 151.285156 34.304688 150.894531 L 34.300781 150.128906 L 34.304688 149.28125 L 34.300781 148.398438 C 34.300781 147.59375 34.300781 146.789062 34.300781 145.984375 C 34.300781 145.144531 34.300781 144.304688 34.300781 143.464844 C 34.300781 142.050781 34.300781 140.640625 34.304688 139.226562 C 34.304688 137.59375 34.304688 135.960938 34.300781 134.328125 C 34.300781 132.929688 34.300781 131.527344 34.300781 130.128906 C 34.300781 129.289062 34.300781 128.453125 34.300781 127.617188 C 34.300781 126.683594 34.300781 125.75 34.304688 124.816406 L 34.300781 123.972656 L 34.304688 123.203125 L 34.304688 122.53125 C 34.335938 121.972656 34.335938 121.972656 34.582031 121.234375 C 35.363281 120.84375 36.195312 120.941406 37.050781 120.941406 L 37.601562 120.929688 C 38.078125 120.929688 38.550781 120.957031 39.023438 120.984375 C 39.632812 121.59375 39.765625 122.148438 40.011719 122.960938 C 40.6875 122.660156 41.179688 122.324219 41.769531 121.863281 C 44.433594 119.96875 48.027344 120.074219 51.042969 121.019531 M 42.15625 126.101562 C 41.390625 126.746094 40.839844 127.324219 40.257812 128.136719 C 39.855469 129.601562 39.9375 131.144531 39.925781 132.648438 C 39.921875 133 39.914062 133.355469 39.90625 133.707031 C 39.796875 135.683594 39.796875 135.683594 40.261719 137.566406 C 40.925781 138.398438 41.765625 138.871094 42.71875 139.300781 C 43.46875 139.574219 44.152344 139.675781 44.949219 139.730469 L 45.519531 139.777344 C 46.9375 139.84375 48.050781 139.617188 49.34375 139.039062 C 50.089844 138.632812 50.585938 138.167969 51.121094 137.511719 L 51.660156 136.863281 C 52.414062 135.464844 52.601562 134.078125 52.601562 132.5 C 52.511719 130.910156 52.304688 129.574219 51.613281 128.136719 C 51.144531 127.410156 51.144531 127.410156 50.625 126.90625 L 50.132812 126.90625 L 49.886719 126.164062 C 49.117188 125.851562 49.117188 125.851562 48.203125 125.625 L 47.273438 125.367188 C 45.523438 124.972656 43.734375 125.269531 42.15625 126.101562 M 143.191406 121.726562 L 143.683594 121.972656 L 143.683594 122.464844 L 144.425781 122.464844 L 144.425781 122.960938 L 145.167969 122.960938 L 145.167969 123.453125 L 145.605469 123.636719 C 146.777344 124.296875 147.519531 125.554688 148.195312 126.691406 C 149.214844 128.753906 149.472656 131.171875 149.410156 133.449219 C 149.25 135.582031 148.804688 137.425781 147.636719 139.238281 C 146.136719 141.234375 144.523438 142.457031 142.273438 143.492188 C 139.667969 144.476562 136.800781 144.417969 134.058594 144.167969 C 132.363281 143.890625 130.886719 143.21875 129.367188 142.441406 L 129.367188 141.949219 L 128.628906 141.949219 C 127.050781 140.550781 125.65625 138.578125 124.972656 136.585938 C 124.3125 134.429688 124.152344 132.210938 124.609375 129.992188 C 125.347656 127.464844 126.433594 125.464844 128.238281 123.542969 C 129.792969 122.121094 131.695312 121.074219 133.753906 120.601562 C 137.117188 120.140625 140.042969 120.488281 143.191406 121.726562 M 132.8125 126.519531 C 131.96875 127.269531 131.433594 128.074219 130.988281 129.109375 C 130.355469 131.082031 130.398438 133.183594 130.703125 135.21875 C 131.058594 136.546875 131.824219 137.542969 132.769531 138.523438 C 133.460938 139.109375 134.050781 139.417969 134.925781 139.640625 C 136.71875 139.902344 138.511719 139.925781 140.222656 139.261719 C 141.148438 138.761719 141.851562 138.125 142.453125 137.261719 C 143.199219 135.933594 143.5625 134.75 143.589844 133.21875 L 143.578125 132.59375 L 143.570312 131.9375 C 143.535156 130.734375 143.417969 129.746094 142.882812 128.648438 C 142.554688 128.109375 142.554688 128.109375 142.203125 127.644531 L 141.679688 126.875 L 141.21875 126.410156 L 140.476562 126.410156 L 140.476562 125.917969 C 137.769531 124.820312 135.273438 124.789062 132.8125 126.519531 M 181.984375 120.96875 C 183.195312 121.421875 184.300781 122.042969 185.402344 122.710938 L 185.402344 123.207031 L 185.851562 123.285156 C 186.390625 123.453125 186.390625 123.453125 187.082031 124.144531 C 188.699219 126.167969 189.746094 128.121094 190.160156 130.671875 C 190.496094 133.03125 190.390625 134.992188 189.597656 137.261719 C 188.6875 139.121094 187.546875 140.789062 185.832031 141.980469 C 183.890625 143.207031 181.902344 144.03125 179.597656 144.21875 C 178.949219 144.242188 178.304688 144.25 177.65625 144.246094 L 176.964844 144.242188 C 175.324219 144.214844 173.847656 144.058594 172.320312 143.429688 L 171.761719 143.203125 C 170.664062 142.707031 169.925781 142.109375 169.109375 141.210938 L 168.703125 140.851562 C 167.203125 139.503906 166.367188 137.839844 165.699219 135.953125 C 165.15625 133.886719 165.230469 131.660156 165.683594 129.585938 C 166.363281 127.195312 167.578125 125.28125 169.292969 123.488281 C 170.976562 121.890625 173.011719 121.144531 175.246094 120.597656 C 177.472656 120.15625 179.808594 120.351562 181.984375 120.96875 M 174.046875 126.164062 C 173.101562 126.917969 172.507812 127.738281 171.996094 128.828125 C 171.375 130.496094 171.097656 132.042969 171.332031 133.8125 C 171.652344 135.410156 172.082031 136.863281 173.105469 138.15625 C 173.710938 138.761719 174.269531 139.164062 175.066406 139.484375 C 176.738281 139.917969 178.492188 139.957031 180.179688 139.566406 C 181.242188 139.199219 182.03125 138.757812 182.792969 137.925781 C 183.433594 137.140625 183.878906 136.257812 184.167969 135.289062 C 184.273438 134.480469 184.285156 133.6875 184.277344 132.871094 L 184.269531 132.210938 C 184.238281 130.8125 184.082031 129.628906 183.46875 128.355469 C 183.148438 127.84375 182.832031 127.363281 182.441406 126.90625 L 181.945312 126.90625 L 181.699219 126.164062 C 181.273438 125.921875 181.273438 125.921875 180.757812 125.765625 L 180.242188 125.585938 C 178.035156 124.90625 176.085938 124.976562 174.046875 126.164062 M 238.507812 121.445312 C 238.917969 121.648438 238.917969 121.648438 239.460938 121.972656 L 239.460938 122.464844 L 239.90625 122.535156 C 240.445312 122.710938 240.445312 122.710938 240.839844 123.097656 C 241.804688 124.410156 242.523438 125.613281 242.75 127.246094 C 242.90625 128.964844 242.957031 130.671875 242.957031 132.398438 L 242.960938 133.242188 C 242.960938 133.824219 242.960938 134.40625 242.960938 134.988281 C 242.960938 135.878906 242.964844 136.769531 242.972656 137.660156 C 242.972656 138.230469 242.972656 138.796875 242.972656 139.367188 L 242.976562 140.171875 L 242.976562 141.578125 C 242.90625 142.285156 242.742188 142.796875 242.421875 143.429688 C 241.679688 143.921875 241.679688 143.921875 240.996094 143.988281 L 240.214844 143.984375 L 239.4375 143.988281 C 238.71875 143.921875 238.71875 143.921875 238.144531 143.71875 L 237.730469 143.429688 C 237.546875 142.660156 237.546875 142.660156 237.484375 141.949219 C 236.644531 142.269531 235.855469 142.640625 235.0625 143.058594 C 233.039062 144.066406 231.324219 144.273438 229.074219 144.253906 C 227.601562 144.125 226.273438 143.703125 224.894531 143.183594 L 224.894531 142.6875 L 224.15625 142.6875 C 223.175781 141.742188 222.199219 140.589844 221.796875 139.265625 C 221.542969 137.769531 221.660156 136.167969 222.109375 134.722656 C 222.6875 133.445312 223.5625 132.464844 224.648438 131.589844 C 226.589844 130.257812 229.175781 129.851562 231.484375 129.648438 C 233.492188 129.539062 235.289062 129.59375 237.238281 130.109375 C 237.144531 128.582031 237.144531 128.582031 236.605469 127.167969 L 236.25 126.660156 L 236.25 126.164062 L 235.527344 125.933594 C 234.769531 125.671875 234.769531 125.671875 234.523438 125.425781 C 231.722656 125.25 229.242188 125.320312 226.625 126.410156 L 226.074219 126.691406 C 225.636719 126.90625 225.636719 126.90625 225.160156 126.90625 C 224.519531 126.59375 224.109375 126.167969 223.675781 125.609375 C 223.414062 125.179688 223.414062 125.179688 223.121094 124.300781 L 223.167969 123.453125 C 223.980469 122.449219 224.949219 122.050781 226.128906 121.554688 C 230.011719 120.15625 234.628906 119.878906 238.507812 121.445312 M 228.628906 134.535156 C 228.101562 135.046875 227.832031 135.335938 227.613281 136.03125 C 227.519531 136.832031 227.5 137.472656 227.796875 138.234375 C 228.125 138.855469 228.4375 139.375 229.023438 139.773438 C 230.480469 140.296875 232.265625 140.109375 233.765625 139.851562 C 234.742188 139.59375 235.566406 139.265625 236.375 138.652344 C 237.003906 137.988281 237.21875 137.628906 237.484375 136.769531 C 237.542969 135.941406 237.542969 135.941406 237.515625 135.089844 L 237.503906 134.222656 L 237.484375 133.5625 C 236.515625 133.082031 235.308594 133.261719 234.246094 133.253906 L 233.480469 133.242188 C 231.597656 133.230469 230.21875 133.464844 228.628906 134.535156 M 79 121.5 C 79.503906 121.722656 80 121.96875 80.496094 122.21875 L 80.496094 122.710938 L 81.234375 122.710938 L 81.234375 123.207031 L 81.726562 123.207031 C 81.640625 123.980469 81.390625 124.316406 80.910156 124.960938 C 80.246094 125.671875 80.246094 125.671875 79.800781 126.027344 C 78.4375 126.375 76.953125 125.84375 75.617188 125.535156 C 73.871094 125.152344 72.085938 124.859375 70.324219 125.320312 C 69.726562 125.558594 69.203125 125.875 68.675781 126.242188 C 68.351562 126.683594 68.351562 126.683594 68.199219 127.382812 C 68.109375 128.109375 68.109375 128.109375 68.324219 128.660156 L 68.644531 129.125 C 69.183594 129.328125 69.183594 129.328125 69.824219 129.390625 L 70.566406 129.5 L 71.359375 129.617188 C 72.476562 129.828125 73.585938 130.0625 74.695312 130.296875 L 75.550781 130.464844 C 77.453125 130.871094 79.136719 131.453125 80.742188 132.578125 C 81.320312 133.195312 81.796875 133.816406 82.222656 134.550781 L 82.5 135 C 82.996094 136.242188 82.832031 137.679688 82.714844 138.988281 C 82.460938 139.957031 82.027344 140.621094 81.375 141.367188 C 79.960938 142.710938 78.125 143.488281 76.25 143.953125 C 73.003906 144.632812 69.082031 144.457031 65.929688 143.429688 C 64.648438 142.902344 63.238281 142.320312 62.335938 141.242188 L 62.226562 140.714844 C 62.539062 140.035156 62.539062 140.035156 63.03125 139.3125 L 63.511719 138.585938 C 63.957031 138.003906 63.957031 138.003906 64.449219 137.757812 C 65.09375 137.984375 65.09375 137.984375 65.867188 138.328125 C 68.117188 139.3125 70.015625 139.777344 72.457031 139.792969 L 73.078125 139.808594 C 74.070312 139.8125 74.742188 139.757812 75.675781 139.386719 C 76.308594 139.015625 76.308594 139.015625 76.792969 138.496094 C 76.914062 137.652344 76.914062 137.652344 76.792969 136.769531 C 76.402344 136.21875 76.402344 136.21875 75.804688 135.785156 C 75.042969 135.484375 75.042969 135.484375 74.167969 135.289062 L 73.683594 135.167969 C 72.214844 134.808594 70.730469 134.5 69.25 134.183594 C 67.765625 133.855469 66.351562 133.40625 64.941406 132.824219 L 64.941406 132.332031 L 64.492188 132.257812 C 63.957031 132.085938 63.957031 132.085938 63.597656 131.71875 L 63.292969 131.265625 L 62.980469 130.824219 C 62.378906 129.742188 62.390625 128.597656 62.40625 127.386719 C 62.515625 126.199219 62.867188 125.222656 63.460938 124.191406 C 64.382812 122.9375 65.546875 122.140625 66.953125 121.496094 C 70.828125 120.050781 75.117188 120.066406 79 121.5 M 117.027344 121.726562 L 117.027344 122.21875 L 118.261719 122.464844 L 118.261719 122.960938 L 119 122.960938 L 119 123.453125 L 119.433594 123.621094 C 120.148438 124.039062 120.519531 124.496094 120.976562 125.179688 L 120.976562 126.164062 C 120.433594 126.457031 119.886719 126.742188 119.339844 127.027344 L 118.878906 127.277344 C 118.140625 127.660156 117.539062 127.890625 116.710938 127.972656 C 116.039062 127.890625 116.039062 127.890625 115.34375 127.429688 C 114.804688 126.90625 114.804688 126.90625 114.558594 126.410156 L 113.816406 126.164062 L 113.816406 125.671875 C 111.058594 125.355469 111.058594 125.355469 108.386719 125.917969 C 107.222656 126.523438 106.484375 127.296875 105.734375 128.351562 C 105.261719 129.160156 105.078125 129.933594 104.929688 130.851562 L 104.730469 131.761719 C 104.535156 133.492188 105.148438 135.269531 105.734375 136.878906 C 106.335938 137.757812 106.996094 138.410156 107.894531 138.988281 C 109.292969 139.597656 110.835938 139.597656 112.335938 139.484375 C 113.660156 139.242188 114.546875 138.488281 115.582031 137.671875 C 116.0625 137.292969 116.0625 137.292969 116.285156 136.769531 C 117.261719 136.90625 118.101562 137.113281 119 137.511719 L 119 138.003906 L 119.695312 138.21875 C 120.484375 138.496094 120.484375 138.496094 121.222656 138.988281 C 120.8125 140.164062 120.253906 140.851562 119.367188 141.703125 C 117.769531 142.988281 115.835938 143.832031 113.816406 144.167969 C 112.925781 144.242188 112.042969 144.25 111.148438 144.246094 L 110.421875 144.242188 C 108.136719 144.210938 106.1875 143.820312 104.191406 142.6875 L 104.191406 142.195312 L 103.527344 142.042969 C 102.710938 141.703125 102.710938 141.703125 102.078125 141.007812 L 101.777344 140.605469 C 101.449219 140.167969 101.449219 140.167969 100.859375 139.667969 C 99.839844 138.550781 99.214844 137.289062 98.820312 135.832031 C 98.304688 133.207031 98.511719 130.949219 99.253906 128.386719 C 100.066406 126.351562 101.066406 124.625 102.78125 123.246094 C 107.097656 120.085938 112.082031 119.671875 117.027344 121.726562 M 155.554688 112.242188 L 156.136719 112.257812 L 156.773438 112.265625 L 157.429688 112.292969 L 158.097656 112.304688 C 158.644531 112.316406 159.1875 112.332031 159.730469 112.355469 C 160.15625 113.207031 160.015625 114.199219 160.019531 115.140625 L 160.023438 115.859375 C 160.027344 116.378906 160.03125 116.894531 160.035156 117.414062 C 160.039062 118.234375 160.042969 119.054688 160.050781 119.875 C 160.066406 122.207031 160.082031 124.539062 160.09375 126.871094 C 160.101562 128.296875 160.113281 129.722656 160.125 131.144531 C 160.128906 131.6875 160.132812 132.230469 160.132812 132.773438 C 160.136719 133.535156 160.140625 134.296875 160.148438 135.058594 L 160.148438 135.734375 C 160.164062 136.996094 160.308594 138.042969 160.71875 139.238281 L 161.425781 139.34375 C 162.199219 139.484375 162.199219 139.484375 162.691406 139.730469 C 162.929688 140.441406 162.988281 140.945312 163 141.6875 L 163.019531 142.324219 C 162.9375 142.9375 162.9375 142.9375 162.625 143.492188 C 162.199219 143.921875 162.199219 143.921875 161.730469 144.105469 C 160.066406 144.3125 158.429688 144.273438 156.832031 143.730469 C 156.1875 143.382812 155.847656 143.046875 155.410156 142.457031 C 153.808594 139.503906 154.222656 135.804688 154.226562 132.546875 L 154.222656 130.890625 C 154.21875 129.738281 154.21875 128.589844 154.222656 127.4375 C 154.222656 125.960938 154.21875 124.488281 154.214844 123.011719 C 154.210938 121.875 154.210938 120.738281 154.210938 119.601562 C 154.210938 119.054688 154.207031 118.511719 154.207031 117.96875 C 154.203125 117.207031 154.203125 116.449219 154.207031 115.691406 L 154.203125 115.011719 C 154.214844 113.496094 154.214844 113.496094 154.644531 112.707031 C 155.039062 112.355469 155.039062 112.355469 155.554688 112.242188 M 88.144531 120.984375 C 88.65625 120.929688 88.65625 120.929688 89.273438 120.9375 L 89.945312 120.941406 L 90.644531 120.957031 L 91.351562 120.960938 C 91.929688 120.96875 92.507812 120.976562 93.082031 120.984375 C 93.542969 122.15625 93.648438 123.207031 93.640625 124.449219 L 93.644531 125.03125 C 93.644531 125.667969 93.644531 126.300781 93.640625 126.9375 L 93.644531 128.265625 C 93.644531 129.191406 93.644531 130.117188 93.640625 131.042969 C 93.636719 132.230469 93.640625 133.417969 93.644531 134.605469 C 93.644531 135.519531 93.644531 136.429688 93.644531 137.34375 C 93.640625 137.78125 93.644531 138.21875 93.644531 138.65625 C 93.644531 139.269531 93.644531 139.878906 93.640625 140.492188 L 93.644531 141.039062 C 93.636719 142.019531 93.554688 142.804688 93.082031 143.675781 C 92.039062 144.085938 90.738281 144.003906 89.628906 143.921875 C 88.832031 143.6875 88.484375 143.519531 87.898438 142.9375 C 87.65625 141.695312 87.617188 140.46875 87.617188 139.210938 L 87.613281 138.628906 C 87.613281 138 87.609375 137.371094 87.609375 136.742188 L 87.609375 135.425781 C 87.605469 134.507812 87.605469 133.59375 87.605469 132.675781 C 87.605469 131.5 87.605469 130.324219 87.597656 129.148438 C 87.597656 128.242188 87.597656 127.339844 87.597656 126.433594 C 87.597656 126 87.59375 125.566406 87.59375 125.132812 C 87.589844 124.527344 87.589844 123.921875 87.59375 123.320312 C 87.589844 123.140625 87.589844 122.960938 87.589844 122.773438 C 87.589844 122.339844 87.621094 121.910156 87.652344 121.480469 Z M 88.144531 120.984375 " fill-opacity="1" fill-rule="nonzero"/><path fill="#1fbfb9" d="M 232.335938 43.484375 L 233.28125 43.488281 L 233.785156 43.488281 C 234.140625 43.488281 234.492188 43.492188 234.84375 43.492188 C 235.386719 43.496094 235.925781 43.5 236.464844 43.5 C 239.105469 43.507812 239.105469 43.507812 239.953125 43.789062 C 240.246094 44.667969 240.234375 45.460938 240.234375 46.375 L 240.234375 46.917969 C 240.234375 47.296875 240.234375 47.671875 240.230469 48.050781 C 240.230469 48.628906 240.230469 49.210938 240.234375 49.789062 C 240.234375 50.15625 240.234375 50.523438 240.234375 50.890625 L 240.234375 51.417969 C 240.234375 51.835938 240.21875 52.253906 240.199219 52.667969 L 239.953125 52.917969 C 239.296875 52.9375 238.644531 52.945312 237.984375 52.941406 L 237.390625 52.9375 C 236.757812 52.9375 236.125 52.933594 235.496094 52.933594 C 235.066406 52.929688 234.640625 52.929688 234.214844 52.929688 C 233.164062 52.925781 232.117188 52.921875 231.066406 52.917969 C 230.691406 52.164062 230.773438 51.382812 230.769531 50.558594 L 230.765625 50 C 230.761719 49.609375 230.761719 49.21875 230.761719 48.832031 C 230.757812 48.234375 230.75 47.636719 230.742188 47.039062 L 230.738281 45.902344 L 230.730469 45.359375 C 230.730469 44.855469 230.730469 44.855469 230.820312 44.039062 C 231.5625 43.542969 231.5625 43.542969 232.335938 43.484375 " fill-opacity="1" fill-rule="nonzero"/><path fill="#1a191b" d="M 287.839844 73.878906 C 288.503906 74.109375 288.503906 74.109375 289.074219 74.371094 C 289.4375 75.398438 289.4375 75.398438 289.320312 76.097656 C 288.363281 77.316406 287.035156 78.25 285.621094 78.875 C 283.945312 79.496094 282.464844 79.632812 280.683594 79.4375 C 279.53125 79.230469 278.5 78.886719 277.472656 78.320312 C 276.75 77.6875 276.75 77.6875 276.238281 77.085938 L 275.777344 76.730469 L 275.5 76.347656 C 275.542969 75.589844 275.542969 75.589844 275.746094 74.867188 L 276.238281 74.371094 C 277.132812 74.464844 277.132812 74.464844 277.96875 74.621094 L 278.214844 75.359375 C 278.710938 75.539062 278.710938 75.539062 279.199219 75.605469 L 279.199219 76.097656 C 280.890625 76.398438 282.679688 76.683594 284.332031 76.105469 C 285.425781 75.578125 286.285156 75.039062 287.101562 74.125 Z M 137.199219 113.222656 L 137.957031 113.234375 L 138.785156 113.242188 L 139.644531 113.261719 L 140.507812 113.269531 C 142.613281 113.296875 142.613281 113.296875 143.191406 113.585938 C 143.128906 114.015625 143.128906 114.015625 142.945312 114.574219 C 142.507812 115.101562 142.507812 115.101562 141.972656 115.621094 L 141.441406 116.148438 L 140.96875 116.546875 L 140.476562 116.546875 L 140.230469 117.285156 C 139.585938 118.046875 138.902344 118.574219 138.007812 119.011719 C 136.753906 119.15625 135.566406 119.117188 134.304688 119.011719 C 134.140625 118.636719 134.140625 118.636719 134.058594 118.027344 C 134.25 117.398438 134.46875 116.78125 134.722656 116.175781 L 134.914062 115.679688 C 135.398438 114.488281 135.847656 113.457031 137.199219 113.222656 M 92.835938 112.355469 L 92.835938 112.847656 L 93.578125 113.09375 C 93.589844 113.660156 93.601562 114.222656 93.609375 114.789062 L 93.625 115.742188 L 93.578125 116.546875 C 93.082031 117.039062 93.082031 117.039062 92.675781 117.191406 C 91.855469 117.324219 91.058594 117.320312 90.230469 117.316406 L 89.726562 117.320312 C 88.96875 117.320312 88.378906 117.28125 87.652344 117.039062 C 87.296875 115.972656 87.332031 114.949219 87.40625 113.832031 C 87.734375 112.765625 87.734375 112.765625 88.144531 112.355469 C 89.765625 112.097656 91.214844 112.132812 92.835938 112.355469 M 275.992188 63.769531 C 276.734375 63.9375 276.734375 63.9375 277.472656 64.261719 C 277.9375 64.707031 277.9375 64.707031 278.214844 65.246094 C 278.335938 65.863281 278.335938 65.863281 278.214844 66.480469 C 277.71875 67.050781 277.71875 67.050781 276.980469 67.46875 C 276.246094 67.609375 275.769531 67.566406 275.003906 67.46875 L 274.496094 67.082031 C 274.265625 66.480469 274.265625 66.480469 274.296875 65.601562 C 274.511719 64.753906 274.511719 64.753906 274.851562 64.292969 C 275.25 64.015625 275.25 64.015625 275.992188 63.769531 M 288.085938 63.769531 C 288.886719 63.785156 289.429688 63.953125 290.15625 64.277344 C 290.554688 64.753906 290.554688 64.753906 290.648438 65.214844 C 290.679688 65.746094 290.660156 66.207031 290.554688 66.726562 L 290.199219 67.234375 C 289.375 67.539062 288.714844 67.480469 287.847656 67.398438 L 287.347656 67.222656 C 287.03125 66.757812 287.03125 66.757812 286.851562 66.234375 C 286.882812 65.496094 286.882812 65.496094 287.101562 64.753906 C 287.515625 64.152344 287.515625 64.152344 288.085938 63.769531 " fill-opacity="1" fill-rule="nonzero"/></svg>